<svg width="36" height="36" viewBox="0 0 36 36" fill="none" xmlns="http://www.w3.org/2000/svg">
<path fill-rule="evenodd" clip-rule="evenodd" d="M35.2978 16.5633C36.3369 13.1697 36.5101 13.1717 33.7964 10.6164C32.6377 9.52544 32.3323 8.50284 31.9579 7.02873C31.4339 4.96728 31.5136 4.50155 27.9419 3.67907C26.3158 3.30476 25.6143 2.38298 24.8533 1.55437C23.4374 0.0124663 22.1145 -0.284641 20.1405 0.343346C19.1032 0.673464 18.0548 1.07646 16.5106 0.598552C13.0084 -0.484996 12.8455 -0.0418762 11.3672 1.47997C10.3102 2.56833 9.5373 3.30019 7.99125 3.66255C4.37043 4.51071 4.52192 4.59628 3.73413 8.05768C3.34225 9.78269 2.48477 10.3622 1.65732 11.0988C-0.0510815 12.6199 -0.219498 13.9325 0.513253 16.0453C0.840744 16.9897 1.17253 17.9003 0.702121 19.4369C-0.336911 22.8305 -0.510123 22.8285 2.20373 25.3838C3.36245 26.4746 3.66771 27.4973 4.04218 28.9715C4.56611 31.0329 4.48658 31.4987 8.05817 32.321C9.63299 32.6837 10.3408 33.5599 11.075 34.3674C12.4723 35.9039 13.7656 36.3116 15.7584 35.6886C16.8292 35.3536 17.895 34.9079 19.4895 35.4013C22.9917 36.4851 23.1543 36.0419 24.6328 34.52C25.6899 33.4316 26.4628 32.6997 28.0087 32.3372C31.6297 31.4892 31.4782 31.4037 32.266 27.9423C32.6368 26.3104 33.4243 25.7036 34.2086 25.0191C35.9996 23.4565 36.2541 22.1667 35.4828 19.9432C35.1565 19.0029 34.8296 18.094 35.2978 16.5633ZM15.9063 25.3472L8.27682 19.3759L10.6099 16.3609L15.5748 20.2467L25.0241 10.6197L27.7275 13.3035L15.9063 25.3472Z" fill="#CF1152"/>
</svg>
